<?xml version="1.0" standalone="no"?>
<!DOCTYPE svg PUBLIC "-//W3C//DTD SVG 20010904//EN"
 "http://www.w3.org/TR/2001/REC-SVG-20010904/DTD/svg10.dtd">
<svg version="1.0" xmlns="http://www.w3.org/2000/svg"
 width="384.000000pt" height="384.000000pt" viewBox="0 0 384.000000 384.000000"
 preserveAspectRatio="xMidYMid meet">
<metadata>
Created by potrace 1.14, written by Peter Selinger 2001-2017
</metadata>
<g transform="translate(0.000000,384.000000) scale(0.100000,-0.100000)"
fill="#000000" stroke="none">
<path d="M1338 3835 c-1 -1 -37 -6 -77 -9 -41 -4 -77 -9 -80 -11 -4 -2 -24 -6
-46 -9 -137 -21 -346 -106 -477 -192 -78 -52 -197 -167 -243 -235 -16 -24 -33
-46 -36 -49 -14 -11 -78 -150 -105 -225 -15 -44 -31 -82 -36 -85 -4 -3 -59 -5
-123 -5 l-115 2 0 -1509 0 -1508 1868 2 1867 3 1 1495 c0 822 -1 1500 -3 1505
-2 7 -536 10 -1668 10 l-1665 0 0 23 c0 37 66 169 110 223 111 132 337 224
598 244 107 8 385 8 472 0 309 -28 529 -138 818 -410 29 -27 56 -51 60 -53 5
-1 7 444 3 564 -1 16 -14 27 -51 43 -168 72 -403 138 -600 166 -25 4 -56 9
-70 11 -31 5 -397 14 -402 9z"/>
<path d="M3180 3825 c-162 -50 -278 -199 -284 -365 -3 -78 7 -125 39 -194 62
-130 190 -214 338 -221 125 -5 235 41 318 134 109 122 129 307 51 454 -37 69
-129 150 -199 177 -71 28 -198 35 -263 15z"/>
</g>
</svg>
